<svg width="15" height="16" fill="none" xmlns="http://www.w3.org/2000/svg"><path d="M14.958 14.02l-4.565-4.565a5.226 5.226 0 001.091-3.213 5.24 5.24 0 00-1.545-3.728A5.235 5.235 0 006.211.969a5.24 5.24 0 00-3.728 1.545A5.232 5.232 0 00.937 6.242c0 1.408.55 2.734 1.546 3.728a5.231 5.231 0 003.728 1.546 5.23 5.23 0 003.211-1.09l4.566 4.563a.144.144 0 00.203 0l.767-.765a.145.145 0 00.031-.157.145.145 0 00-.031-.046zM8.995 9.027a3.916 3.916 0 01-2.784 1.153c-1.051 0-2.04-.41-2.784-1.153a3.916 3.916 0 01-1.154-2.785c0-1.051.41-2.04 1.154-2.784A3.916 3.916 0 016.21 2.305c1.051 0 2.04.407 2.784 1.153a3.916 3.916 0 011.153 2.784c0 1.051-.41 2.041-1.153 2.785z" fill="#585858"/></svg>