<svg width="64" height="64" fill="none" xmlns="http://www.w3.org/2000/svg"><path d="M15 10h35v44H15V10z" stroke="#000" stroke-width="4"/><path d="M36.254 46v-1.234C39.308 44.502 41 42.916 41 40.33c0-2.203-1.232-3.564-3.651-4.064l-1.095-.215v-3.046c.791.137 1.37.813 1.398 1.587h3.09c-.027-2.331-1.756-3.976-4.488-4.25V29H34.93v1.332c-2.971.235-4.682 1.821-4.682 4.358 0 2.144 1.233 3.554 3.587 4.103l1.095.254v3.154c-.984-.108-1.693-.784-1.739-1.646H30c.01 2.507 1.821 4.064 4.93 4.23V46h1.324zm1.6-5.268c0 .832-.597 1.39-1.6 1.468v-2.918c1.076.216 1.6.696 1.6 1.45zm-4.377-6.375c0-.755.597-1.313 1.453-1.371v2.78c-.948-.205-1.453-.695-1.453-1.41z" fill="#FD665E"/></svg>