<svg width="58" height="40" viewBox="0 0 58 40" fill="none" xmlns="http://www.w3.org/2000/svg">
<path d="M24.7422 0C12.2969 1.89844 0.976562 11.1797 0.976562 24.3984C0.976562 33.5391 6.25 39.7266 13.8438 39.7266C21.8594 39.7266 26.5703 32.9062 26.5703 24.5391C19.8906 24.2578 15.3203 20.1094 15.3203 14.2031C15.3203 8.36719 19.75 4.5 25.8672 3.23438L24.7422 0ZM56.1719 0C43.7266 1.89844 32.4062 11.1797 32.4062 24.3984C32.4062 33.5391 37.6797 39.7266 45.2734 39.7266C53.2891 39.7266 58 32.9062 58 24.5391C51.3203 24.2578 46.6797 20.1094 46.6797 14.2031C46.6797 8.36719 51.1094 4.5 57.2266 3.23438L56.1719 0Z" fill="#FD665E"/>
</svg>
