<svg width="15" height="16" viewBox="0 0 15 16" fill="none" xmlns="http://www.w3.org/2000/svg">
<path d="M14.9578 14.0205L10.3928 9.45544C11.1012 8.53962 11.4844 7.41989 11.4844 6.24216C11.4844 4.83239 10.9342 3.51052 9.93926 2.51384C8.94434 1.51716 7.61895 0.968719 6.21094 0.968719C4.80293 0.968719 3.47754 1.51891 2.48262 2.51384C1.48594 3.50876 0.9375 4.83239 0.9375 6.24216C0.9375 7.65016 1.4877 8.97556 2.48262 9.97048C3.47754 10.9672 4.80117 11.5156 6.21094 11.5156C7.38867 11.5156 8.50664 11.1324 9.42246 10.4258L13.9875 14.989C14.0009 15.0024 14.0168 15.0131 14.0343 15.0203C14.0518 15.0275 14.0705 15.0313 14.0895 15.0313C14.1084 15.0313 14.1271 15.0275 14.1446 15.0203C14.1621 15.0131 14.178 15.0024 14.1914 14.989L14.9578 14.2244C14.9712 14.211 14.9818 14.1951 14.9891 14.1776C14.9963 14.1601 15.0001 14.1414 15.0001 14.1224C15.0001 14.1035 14.9963 14.0847 14.9891 14.0673C14.9818 14.0498 14.9712 14.0339 14.9578 14.0205ZM8.99531 9.02653C8.25 9.77009 7.26211 10.1797 6.21094 10.1797C5.15977 10.1797 4.17188 9.77009 3.42656 9.02653C2.68301 8.28122 2.27344 7.29333 2.27344 6.24216C2.27344 5.19099 2.68301 4.20134 3.42656 3.45778C4.17188 2.71423 5.15977 2.30466 6.21094 2.30466C7.26211 2.30466 8.25176 2.71247 8.99531 3.45778C9.73887 4.20309 10.1484 5.19099 10.1484 6.24216C10.1484 7.29333 9.73887 8.28298 8.99531 9.02653Z" fill="#585858"/>
</svg>
